<?xml version="1.0" encoding="UTF-8"?>
<svg version="1.1" xmlns="http://www.w3.org/2000/svg" width="64" height="64">
<path d="M0 0 C2.64 0.33 5.28 0.66 8 1 C7.01 5.95 6.02 10.9 5 16 C10.445 10.555 10.445 10.555 16 5 C18.475 6.98 18.475 6.98 21 9 C19.59155282 12.21524305 17.89655214 14.32183868 15.375 16.75 C14.74335937 17.36359375 14.11171875 17.9771875 13.4609375 18.609375 C12.97882812 19.06828125 12.49671875 19.5271875 12 20 C13.72926874 19.68806536 15.45841044 19.37542638 17.1875 19.0625 C18.15042969 18.88847656 19.11335938 18.71445312 20.10546875 18.53515625 C22.74239972 18.0476265 25.3719905 17.53328895 28 17 C28.66 19.31 29.32 21.62 30 24 C25.34932255 25.76405007 20.72354447 27.42548518 16 29 C20.95 30.32 25.9 31.64 31 33 C30.67 35.64 30.34 38.28 30 41 C29.16855469 40.7834375 28.33710937 40.566875 27.48046875 40.34375 C26.39378906 40.0653125 25.30710938 39.786875 24.1875 39.5 C23.10855469 39.2215625 22.02960937 38.943125 20.91796875 38.65625 C18.01066025 37.89029052 18.01066025 37.89029052 15 38 C18.63 41.63 22.26 45.26 26 49 C24 53 24 53 21 55 C17.7 51.7 14.4 48.4 11 45 C11.309375 46.52625 11.61875 48.0525 11.9375 49.625 C12.69502255 53.40724026 13.39830665 57.18927548 14 61 C11.69 61.66 9.38 62.32 7 63 C6.80664062 62.39671875 6.61328125 61.7934375 6.4140625 61.171875 C6.02347656 59.97304687 6.02347656 59.97304687 5.625 58.75 C5.36976562 57.96109375 5.11453125 57.1721875 4.8515625 56.359375 C3.93391927 53.67283375 3.93391927 53.67283375 2 50 C0.68 54.62 -0.64 59.24 -2 64 C-5.465 63.505 -5.465 63.505 -9 63 C-8.43379473 58.30858495 -7.79435795 53.65934325 -7 49 C-7.67546875 49.73347656 -8.3509375 50.46695313 -9.046875 51.22265625 C-9.93890625 52.15980469 -10.8309375 53.09695312 -11.75 54.0625 C-12.63171875 55.00222656 -13.5134375 55.94195312 -14.421875 56.91015625 C-17 59 -17 59 -19.140625 59.05859375 C-21 58 -21 58 -24 54 C-20.7 50.7 -17.4 47.4 -14 44 C-19.28 44.99 -24.56 45.98 -30 47 C-30.99 43.535 -30.99 43.535 -32 40 C-27.71 38.68 -23.42 37.36 -19 36 C-22.18071004 34.40964498 -24.87657653 33.35151732 -28.25 32.375 C-29.14203125 32.11460938 -30.0340625 31.85421875 -30.953125 31.5859375 C-31.62859375 31.39257812 -32.3040625 31.19921875 -33 31 C-32.67 28.69 -32.34 26.38 -32 24 C-27.2982579 24.56745163 -22.67755138 25.2204081 -18 26 C-21.3 22.7 -24.6 19.4 -28 16 C-26 12 -26 12 -22 10 C-19.03 12.97 -16.06 15.94 -13 19 C-13.99 13.72 -14.98 8.44 -16 3 C-13.69 2.34 -11.38 1.68 -9 1 C-8.80664062 1.59167969 -8.61328125 2.18335938 -8.4140625 2.79296875 C-8.02347656 3.97826172 -8.02347656 3.97826172 -7.625 5.1875 C-7.36976562 5.96480469 -7.11453125 6.74210938 -6.8515625 7.54296875 C-5.98008898 10.05744968 -4.9883515 12.52912126 -4 15 C-2.68 10.05 -1.36 5.1 0 0 Z M-11 24 C-13.12072045 27.57871576 -14.02239548 29.90262159 -13.9375 34.0625 C-12.60073348 38.25103509 -10.74762173 41.62686864 -7.25 44.375 C-2.14974966 45.79173621 1.60560945 45.65773139 6.3125 43.4375 C9.59469806 40.46062269 10.77470578 38.25249171 12 34 C11.9084746 28.69152693 10.75339955 25.75339955 7 22 C1.23099842 17.82244713 -5.96828777 19.5777993 -11 24 Z " fill="#3579FF" transform="translate(33,0)"/>
</svg>
